<svg xmlns="http://www.w3.org/2000/svg" width="512" height="512" viewBox="0 0 512 512"><defs><linearGradient id="bp" x1="0" y1="0" x2="0" y2="1"><stop offset="0" stop-color="#1d5bb0"/><stop offset="1" stop-color="#123c7a"/></linearGradient></defs><rect width="512" height="512" fill="url(#bp)"/><g stroke="#ffffff" stroke-width="1" opacity="0.12"><line x1="64" y1="0" x2="64" y2="512"/><line x1="128" y1="0" x2="128" y2="512"/><line x1="192" y1="0" x2="192" y2="512"/><line x1="256" y1="0" x2="256" y2="512"/><line x1="320" y1="0" x2="320" y2="512"/><line x1="384" y1="0" x2="384" y2="512"/><line x1="448" y1="0" x2="448" y2="512"/><line x1="0" y1="64" x2="512" y2="64"/><line x1="0" y1="128" x2="512" y2="128"/><line x1="0" y1="192" x2="512" y2="192"/><line x1="0" y1="256" x2="512" y2="256"/><line x1="0" y1="320" x2="512" y2="320"/><line x1="0" y1="384" x2="512" y2="384"/><line x1="0" y1="448" x2="512" y2="448"/></g><g stroke="#ffffff" stroke-width="18" fill="none" stroke-linecap="round" stroke-linejoin="round"><path d="M84 214 L256 70 L428 214"/><path d="M120 214 L120 442 L392 442 L392 214"/></g><rect x="156" y="214" width="200" height="228" rx="18" fill="#ffffff"/><rect x="172" y="232" width="168" height="56" rx="8" fill="#123c7a"/><text x="328" y="272" font-family="DejaVu Sans" font-weight="bold" font-size="36" text-anchor="end" fill="#ffd94d">12' 6"</text><rect x="176" y="320" width="72" height="48" rx="10" fill="#1d5bb0"/><text x="212" y="354" font-family="DejaVu Sans" font-weight="bold" font-size="30" text-anchor="middle" fill="#ffffff">FT</text><rect x="264" y="320" width="72" height="48" rx="10" fill="#1d5bb0"/><text x="300" y="354" font-family="DejaVu Sans" font-weight="bold" font-size="30" text-anchor="middle" fill="#ffffff">IN</text><rect x="176" y="378" width="72" height="48" rx="10" fill="#ffd94d"/><text x="212" y="412" font-family="DejaVu Sans" font-weight="bold" font-size="30" text-anchor="middle" fill="#123c7a">+</text><rect x="264" y="378" width="72" height="48" rx="10" fill="#ffd94d"/><text x="300" y="412" font-family="DejaVu Sans" font-weight="bold" font-size="30" text-anchor="middle" fill="#123c7a">−</text></svg>